<svg xmlns="http://www.w3.org/2000/svg" viewBox="0 0 800 660" font-family="sans-serif" font-size="12">
  <title>Active Drain — Flow Loop (Freeze Protection / Overheat Protection)</title>
  <desc>
    Pump pulls water from collector bottom via VI-coll, pushes to tank via VO-tank.
    Air enters collector top via V_air. Flow sensor detects empty.
    Used for both freeze protection (Mode 3) and overheat protection (Mode 4).
    Source of truth: system.yaml → modes.active_drain, modes.overheat_drain
  </desc>

  <rect width="800" height="660" fill="#0d1117"/>

  <!-- Title -->
  <text x="400" y="28" fill="#ff9800" text-anchor="middle" font-size="16" font-weight="bold">Active Drain (Freeze / Overheat Protection)</text>
  <text x="400" y="46" fill="#888" text-anchor="middle" font-size="11">Freeze: T_outdoor &lt; 2°C — Overheat: T_tank_top &gt; 85°C — Same valve states and sequence</text>

  <!-- Height scale -->
  <line x1="35" y1="70" x2="35" y2="560" stroke="#333" stroke-width="1"/>
  <text x="8" y="74" fill="#555" font-size="9">280cm</text>
  <line x1="30" y1="70" x2="40" y2="70" stroke="#555"/>
  <text x="8" y="174" fill="#555" font-size="9">200cm</text>
  <line x1="30" y1="170" x2="40" y2="170" stroke="#555"/>
  <text x="8" y="444" fill="#555" font-size="9">30cm</text>
  <line x1="30" y1="440" x2="40" y2="440" stroke="#555"/>
  <text x="8" y="564" fill="#555" font-size="9">0cm</text>
  <line x1="30" y1="560" x2="40" y2="560" stroke="#555"/>

  <!-- Ground -->
  <line x1="35" y1="560" x2="770" y2="560" stroke="#5d4037" stroke-width="1.5" stroke-dasharray="6,3"/>

  <!-- ====== COLLECTORS (draining) ====== -->
  <rect x="60" y="70" width="60" height="370"
        fill="#ff980008" stroke="#ff9800" stroke-width="2.5" stroke-dasharray="6,3" rx="4"/>
  <text x="90" y="260" fill="#ff9800" text-anchor="middle" font-size="10" font-weight="bold"
        transform="rotate(-90 90 260)">Collectors — DRAINING</text>

  <!-- Water level dropping -->
  <rect x="63" y="320" width="54" height="117" fill="#42a5f510" rx="2"/>
  <text x="90" y="380" fill="#42a5f5" text-anchor="middle" font-size="8">water ↓</text>

  <!-- Air replacing from top -->
  <rect x="63" y="73" width="54" height="247" fill="#90caf908" rx="2"/>
  <text x="90" y="190" fill="#90caf950" text-anchor="middle" font-size="8">air</text>

  <!-- ====== V_air at collector top (OPEN - air intake) ====== -->
  <rect x="150" y="75" width="55" height="20" fill="#ff980030" stroke="#ff9800" stroke-width="2" rx="3"/>
  <text x="177" y="89" fill="#ff9800" text-anchor="middle" font-size="9" font-weight="bold">V_air</text>
  <text x="177" y="69" fill="#ff9800" text-anchor="middle" font-size="8">OPEN</text>
  <line x1="120" y1="85" x2="150" y2="85" stroke="#ff9800" stroke-width="2"/>

  <!-- Air entering -->
  <path d="M 205 85 L 240 85" fill="none" stroke="#90caf9" stroke-width="2" stroke-dasharray="6,4"/>
  <text x="248" y="82" fill="#90caf9" font-size="10" font-weight="bold">AIR IN</text>
  <polygon points="205,85 215,80 215,90" fill="#90caf9"/>

  <!-- ====== V_ret CLOSED ====== -->
  <rect x="150" y="110" width="55" height="20" fill="#33333380" stroke="#555" stroke-width="1" rx="3"/>
  <text x="177" y="124" fill="#666" text-anchor="middle" font-size="9">V_ret</text>
  <text x="220" y="124" fill="#666" font-size="8">CLOSED</text>

  <!-- ====== RESERVOIR (receives overflow via dip tube) ====== -->
  <rect x="290" y="158" width="90" height="30"
        fill="#42a5f508" stroke="#42a5f530" stroke-width="1.5" rx="4"/>
  <text x="335" y="172" fill="#42a5f555" text-anchor="middle" font-size="10">Reservoir</text>
  <text x="335" y="152" fill="#42a5f530" text-anchor="middle" font-size="8">on dip tube (overflow)</text>

  <!-- ====== JÄSPI TANK (receiving drained water) ====== -->
  <rect x="285" y="260" width="100" height="300"
        fill="#1565c010" stroke="#1565c0" stroke-width="2" rx="5"/>
  <text x="335" y="370" fill="#90caf9" text-anchor="middle" font-size="14" font-weight="bold">Jäspi</text>
  <text x="335" y="388" fill="#90caf9" text-anchor="middle" font-size="11">300L</text>

  <!-- Water level rising inside tank -->
  <rect x="289" y="420" width="92" height="135" fill="#42a5f512" rx="3"/>
  <text x="335" y="490" fill="#64b5f6" text-anchor="middle" font-size="9">receiving</text>
  <text x="335" y="504" fill="#64b5f6" text-anchor="middle" font-size="9">drained water</text>

  <!-- Tank bottom connections -->
  <circle cx="310" cy="560" r="5" fill="#1565c0"/>
  <text x="270" y="580" fill="#64b5f6" font-size="8">bottom port</text>
  <circle cx="360" cy="560" r="5" fill="#e53935"/>
  <text x="345" y="580" fill="#ef9a9a" font-size="8">dip tube port</text>

  <!-- ====== DRAIN FLOW PATH ====== -->

  <!-- Flow sensor on collector bottom pipe -->
  <rect x="125" y="460" width="40" height="16" fill="#e040fb25" stroke="#e040fb" stroke-width="1.5" rx="3"/>
  <text x="145" y="471" fill="#e040fb" text-anchor="middle" font-size="7" font-weight="bold">FlowSens</text>
  <text x="145" y="488" fill="#ce93d8" text-anchor="middle" font-size="8">→ 0 = stop pump</text>

  <!-- Pipe: collector bottom → flow sensor → VI-coll -->
  <path d="M 90 440 L 90 468 L 125 468" fill="none" stroke="#42a5f5" stroke-width="2.5"/>
  <path d="M 165 468 L 200 468 L 200 540 L 260 540" fill="none" stroke="#42a5f5" stroke-width="2.5"/>

  <!-- VI-coll valve -->
  <rect x="260" y="530" width="55" height="20" fill="#ff980030" stroke="#ff9800" stroke-width="2" rx="3"/>
  <text x="287" y="544" fill="#ff9800" text-anchor="middle" font-size="9" font-weight="bold">VI-coll</text>
  <text x="287" y="524" fill="#ff9800" text-anchor="middle" font-size="8">OPEN</text>

  <!-- Pump -->
  <circle cx="400" cy="505" r="22" fill="#ff980012" stroke="#ff9800" stroke-width="2.5"/>
  <text x="400" y="501" fill="#ff9800" text-anchor="middle" font-size="11" font-weight="bold">Pump</text>
  <text x="400" y="514" fill="#76ff03" text-anchor="middle" font-size="9">ON*</text>

  <!-- Pipe: VI-coll → pump -->
  <path d="M 315 540 L 340 540 L 340 505 L 378 505" fill="none" stroke="#42a5f5" stroke-width="2.5"/>
  <polygon points="378,505 370,500 370,510" fill="#42a5f5"/>
  <text x="275" y="510" fill="#42a5f5" font-size="8">water from collectors</text>

  <!-- VO-tank valve -->
  <rect x="460" y="495" width="55" height="20" fill="#ff980030" stroke="#ff9800" stroke-width="2" rx="3"/>
  <text x="487" y="509" fill="#ff9800" text-anchor="middle" font-size="9" font-weight="bold">VO-tank</text>
  <text x="487" y="489" fill="#ff9800" text-anchor="middle" font-size="8">OPEN</text>

  <!-- Pipe: pump → VO-tank → tank return -->
  <path d="M 422 505 L 460 505" fill="none" stroke="#42a5f5" stroke-width="2.5"/>
  <path d="M 515 505 L 540 505 L 540 580 L 310 580 L 310 560" fill="none" stroke="#42a5f5" stroke-width="2.5"/>
  <polygon points="310,560 305,570 315,570" fill="#42a5f5"/>
  <text x="440" y="595" fill="#42a5f5" font-size="9">pumped into tank bottom port</text>

  <!-- ====== SEQUENCE BOX ====== -->
  <rect x="540" y="70" width="230" height="255" fill="#2a1a0a" stroke="#ff9800" stroke-width="1.5" rx="5"/>
  <text x="555" y="92" fill="#ff9800" font-size="13" font-weight="bold">Drain Sequence</text>
  <line x1="550" y1="100" x2="760" y2="100" stroke="#ff980040"/>

  <text x="555" y="120" fill="#ccc" font-size="11">1. Stop pump</text>
  <text x="555" y="140" fill="#ccc" font-size="11">2. Close all valves</text>
  <text x="555" y="160" fill="#ccc" font-size="11">3. Open V_air (air intake)</text>
  <text x="555" y="180" fill="#ccc" font-size="11">4. Open VI-coll (coll bottom)</text>
  <text x="555" y="200" fill="#ccc" font-size="11">5. Open VO-tank (to tank)</text>
  <text x="555" y="220" fill="#ccc" font-size="11">6. Start pump</text>
  <text x="555" y="240" fill="#ccc" font-size="11">7. Monitor flow sensor</text>
  <text x="555" y="260" fill="#76ff03" font-size="11" font-weight="bold">8. Flow=0 → stop pump</text>
  <line x1="550" y1="272" x2="760" y2="272" stroke="#ff980040"/>
  <text x="555" y="292" fill="#e53935" font-size="10" font-weight="bold">Safety:</text>
  <text x="555" y="310" fill="#ccc" font-size="10">Stop pump BEFORE switching valves</text>

  <!-- *until flow=0 note -->
  <text x="400" y="540" fill="#888" font-size="8" text-anchor="middle">*until flow sensor = 0</text>
</svg>
