<svg xmlns="http://www.w3.org/2000/svg" viewBox="0 0 800 660" font-family="sans-serif" font-size="12">
  <title>Mode 2: Greenhouse Heating — Flow Loop</title>
  <desc>
    Hot water from tank top via dip tube → reservoir (air separator) → pump → radiator.
    Return to tank bottom port. Pump draws from reservoir bottom (never sees gas).
    Source of truth: system.yaml → modes.greenhouse_heating
  </desc>

  <rect width="800" height="660" fill="#0d1117"/>

  <!-- Title -->
  <text x="400" y="28" fill="#2e7d32" text-anchor="middle" font-size="16" font-weight="bold">Mode 2: Greenhouse Heating</text>
  <text x="400" y="46" fill="#888" text-anchor="middle" font-size="11">Trigger: T_greenhouse &lt; 10°C</text>

  <!-- Height scale -->
  <line x1="35" y1="70" x2="35" y2="600" stroke="#333" stroke-width="1"/>
  <text x="8" y="94" fill="#555" font-size="9">200cm</text>
  <line x1="30" y1="90" x2="40" y2="90" stroke="#555"/>
  <text x="8" y="114" fill="#555" font-size="9">185cm</text>
  <line x1="30" y1="110" x2="40" y2="110" stroke="#444" stroke-dasharray="2,4"/>
  <text x="8" y="604" fill="#555" font-size="9">0cm</text>
  <line x1="30" y1="600" x2="40" y2="600" stroke="#555"/>

  <!-- Ground -->
  <line x1="35" y1="600" x2="770" y2="600" stroke="#5d4037" stroke-width="1.5" stroke-dasharray="6,3"/>

  <!-- ====== COLLECTORS (idle, dimmed) ====== -->
  <rect x="60" y="70" width="50" height="410"
        fill="none" stroke="#333" stroke-width="1.5" stroke-dasharray="6,4" rx="4"/>
  <text x="85" y="290" fill="#444" text-anchor="middle" font-size="9"
        transform="rotate(-90 85 290)">Collectors (idle)</text>

  <!-- ====== JÄSPI TANK ====== -->
  <rect x="150" y="100" width="120" height="500"
        fill="#1565c010" stroke="#1565c0" stroke-width="2.5" rx="5"/>

  <!-- Hot zone (drawing from here via dip tube) -->
  <rect x="154" y="115" width="112" height="100" fill="#e5393518" stroke="#ef535030" stroke-width="1" rx="3"/>
  <text x="210" y="155" fill="#ef9a9a" text-anchor="middle" font-size="11" font-weight="bold">HOT</text>
  <text x="210" y="172" fill="#ef9a9a" text-anchor="middle" font-size="9">draw from here</text>

  <!-- Gas pocket at very top -->
  <rect x="154" y="103" width="112" height="12" fill="#90caf908" rx="3"/>
  <text x="210" y="112" fill="#90caf940" text-anchor="middle" font-size="7">gas pocket (trapped)</text>

  <!-- Cool zone -->
  <rect x="154" y="530" width="112" height="65" fill="#1565c018" rx="3"/>
  <text x="210" y="565" fill="#64b5f6" text-anchor="middle" font-size="9">COOL (return)</text>

  <text x="210" y="380" fill="#90caf9" text-anchor="middle" font-size="14" font-weight="bold">Jäspi</text>
  <text x="210" y="398" fill="#90caf9" text-anchor="middle" font-size="11">300L</text>

  <!-- Dip tube inside tank -->
  <line x1="230" y1="115" x2="230" y2="600" stroke="#ef535030" stroke-width="1.5" stroke-dasharray="4,3"/>
  <text x="238" y="420" fill="#ef9a9a40" font-size="7" transform="rotate(-90 238 420)">internal dip tube</text>

  <!-- Dip tube opening indicator -->
  <circle cx="230" cy="115" r="3" fill="#ef5350"/>
  <text x="245" y="118" fill="#ef9a9a" font-size="8">dip tube opening (~185cm)</text>

  <!-- Tank bottom connections -->
  <circle cx="190" cy="600" r="5" fill="#1565c0"/>
  <text x="170" y="620" fill="#64b5f6" font-size="8">bottom port</text>
  <circle cx="230" cy="600" r="5" fill="#e53935"/>
  <text x="218" y="620" fill="#ef9a9a" font-size="8">dip tube port</text>

  <!-- ====== PIPE: Dip tube port → UP to reservoir ====== -->
  <path d="M 230 600 L 230 640 L 300 640 L 300 97 L 340 97" fill="none" stroke="#ef5350" stroke-width="2.5"/>
  <text x="308" y="350" fill="#ef5350" font-size="9" transform="rotate(-90 308 350)">hot water rises to reservoir ↑</text>

  <!-- ====== RESERVOIR (air separator) ====== -->
  <rect x="340" y="72" width="120" height="55"
        fill="#42a5f515" stroke="#42a5f5" stroke-width="2.5" rx="5"/>
  <text x="400" y="92" fill="#64b5f6" text-anchor="middle" font-size="12" font-weight="bold">Reservoir</text>
  <text x="400" y="107" fill="#64b5f6" text-anchor="middle" font-size="10">air separator</text>
  <text x="400" y="66" fill="#90caf9" text-anchor="middle" font-size="9">25L canister, loose cap (~200cm)</text>

  <!-- Gas venting from canister via loose cap -->
  <text x="470" y="68" fill="#90caf960" font-size="12">↑ gas vents</text>

  <!-- Water level in reservoir -->
  <line x1="345" y1="95" x2="455" y2="95" stroke="#42a5f540" stroke-width="1" stroke-dasharray="3,3"/>

  <!-- ====== PIPE: Reservoir bottom → VI-top → Pump ====== -->
  <path d="M 400 127 L 400 540" fill="none" stroke="#ef5350" stroke-width="2.5"/>
  <text x="410" y="340" fill="#ef5350" font-size="9">de-aired water ↓</text>

  <!-- VI-top valve -->
  <rect x="372" y="545" width="55" height="20" fill="#76ff0320" stroke="#76ff03" stroke-width="1.5" rx="3"/>
  <text x="399" y="559" fill="#76ff03" text-anchor="middle" font-size="9">VI-top</text>
  <text x="399" y="539" fill="#76ff03" text-anchor="middle" font-size="8">OPEN</text>

  <!-- Pipe: VI-top → pump -->
  <path d="M 399 565 L 399 580 L 480 580" fill="none" stroke="#ef5350" stroke-width="2.5"/>
  <polygon points="480,580 472,575 472,585" fill="#ef5350"/>

  <!-- Pump -->
  <circle cx="510" cy="580" r="22" fill="#76ff0312" stroke="#4fc3f7" stroke-width="2.5"/>
  <text x="510" y="576" fill="#4fc3f7" text-anchor="middle" font-size="11" font-weight="bold">Pump</text>
  <text x="510" y="589" fill="#76ff03" text-anchor="middle" font-size="9">ON</text>

  <!-- VO-rad valve -->
  <rect x="560" y="540" width="55" height="20" fill="#76ff0320" stroke="#76ff03" stroke-width="1.5" rx="3"/>
  <text x="587" y="554" fill="#76ff03" text-anchor="middle" font-size="9">VO-rad</text>
  <text x="587" y="534" fill="#76ff03" text-anchor="middle" font-size="8">OPEN</text>

  <!-- Pipe: pump → VO-rad -->
  <path d="M 532 580 L 587 580 L 587 560" fill="none" stroke="#ef5350" stroke-width="2.5"/>

  <!-- ====== GREENHOUSE ====== -->
  <path d="M 620 380 L 620 600 L 770 600 L 770 380 L 725 335 L 665 335 Z"
        fill="#2e7d3210" stroke="#2e7d32" stroke-width="2.5"/>
  <text x="695" y="370" fill="#66bb6a" text-anchor="middle" font-size="13" font-weight="bold">Greenhouse</text>

  <!-- Radiator -->
  <rect x="640" y="530" width="90" height="40"
        fill="#ff572218" stroke="#ff5722" stroke-width="2" rx="4"/>
  <text x="685" y="550" fill="#ff8a65" text-anchor="middle" font-size="11" font-weight="bold">Radiator</text>
  <text x="685" y="564" fill="#ff8a65" text-anchor="middle" font-size="9">+ fan ON</text>

  <!-- Heat waves -->
  <text x="650" y="522" fill="#ff8a6570" font-size="14">~</text>
  <text x="670" y="517" fill="#ff8a6550" font-size="14">~</text>
  <text x="690" y="520" fill="#ff8a6570" font-size="14">~</text>
  <text x="710" y="515" fill="#ff8a6550" font-size="14">~</text>

  <!-- Pipe: VO-rad → radiator inlet (pump PUSHES through radiator) -->
  <path d="M 587 540 L 587 500 L 630 500 L 630 540 L 640 540" fill="none" stroke="#ef5350" stroke-width="2.5"/>
  <polygon points="640,540 632,535 632,545" fill="#ef5350"/>
  <text x="595" y="494" fill="#ef5350" font-size="9">hot → (pressurized, clears gas)</text>

  <!-- ====== RETURN FLOW (cool water from radiator to tank bottom port) ====== -->
  <path d="M 640 560 L 625 560 L 625 640 L 190 640 L 190 600" fill="none" stroke="#42a5f5" stroke-width="2.5"/>
  <polygon points="190,600 185,610 195,610" fill="#42a5f5"/>
  <text x="400" y="652" fill="#42a5f5" font-size="9">← cool return to tank bottom port</text>

  <!-- T_greenhouse sensor -->
  <circle cx="695" cy="410" r="4" fill="#76ff03"/>
  <text x="705" y="413" fill="#76ff03" font-size="9">T_greenhouse</text>

  <!-- ====== STATUS BOX ====== -->
  <rect x="60" y="480" width="220" height="105" fill="#1a2a1a" stroke="#388e3c" stroke-width="1.5" rx="5"/>
  <text x="75" y="502" fill="#66bb6a" font-size="12" font-weight="bold">Open Valves</text>
  <text x="75" y="522" fill="#ccc" font-size="11">VI-top — reservoir bottom (hot)</text>
  <text x="75" y="540" fill="#ccc" font-size="11">VO-rad — to radiator</text>
  <line x1="70" y1="548" x2="270" y2="548" stroke="#388e3c55"/>
  <text x="75" y="564" fill="#66bb6a" font-size="10">Pump ON, Fan ON</text>
  <text x="75" y="580" fill="#888" font-size="9">Reservoir = air separator + gravity feed</text>
</svg>
