<svg xmlns="http://www.w3.org/2000/svg" viewBox="0 0 800 660" font-family="sans-serif" font-size="12">
  <title>Mode 1: Solar Charging — Flow Loop</title>
  <desc>
    Cool water from tank bottom through collectors. Return via reservoir
    and dip tube pipe into tank top (~185cm) for excellent stratification.
    Source of truth: system.yaml → modes.solar_charging
  </desc>

  <rect width="800" height="660" fill="#0d1117"/>

  <!-- Title -->
  <text x="400" y="28" fill="#f9a825" text-anchor="middle" font-size="16" font-weight="bold">Mode 1: Solar Charging</text>
  <text x="400" y="46" fill="#888" text-anchor="middle" font-size="11">Trigger: T_collector > T_tank_bottom + 7°C</text>

  <!-- Height scale -->
  <line x1="35" y1="70" x2="35" y2="600" stroke="#333" stroke-width="1"/>
  <text x="8" y="74" fill="#555" font-size="9">280cm</text>
  <line x1="30" y1="70" x2="40" y2="70" stroke="#555"/>
  <text x="8" y="94" fill="#555" font-size="9">200cm</text>
  <line x1="30" y1="90" x2="40" y2="90" stroke="#555"/>
  <text x="8" y="114" fill="#555" font-size="9">185cm</text>
  <line x1="30" y1="110" x2="40" y2="110" stroke="#444" stroke-dasharray="2,4"/>
  <text x="8" y="474" fill="#555" font-size="9">30cm</text>
  <line x1="30" y1="470" x2="40" y2="470" stroke="#555"/>
  <text x="8" y="604" fill="#555" font-size="9">0cm</text>
  <line x1="30" y1="600" x2="40" y2="600" stroke="#555"/>

  <!-- Ground -->
  <line x1="35" y1="600" x2="770" y2="600" stroke="#5d4037" stroke-width="1.5" stroke-dasharray="6,3"/>

  <!-- ====== COLLECTORS ====== -->
  <rect x="60" y="70" width="60" height="400"
        fill="#f9a82510" stroke="#f9a825" stroke-width="2.5" rx="4"/>
  <text x="90" y="280" fill="#f9a825" text-anchor="middle" font-size="11" font-weight="bold"
        transform="rotate(-90 90 280)">Solar Collectors</text>

  <!-- Flow UP inside collectors -->
  <path d="M 90 450 L 90 95" fill="none" stroke="#ef5350" stroke-width="2" stroke-dasharray="8,4"/>
  <polygon points="90,95 85,110 95,110" fill="#ef5350"/>
  <text x="55" y="280" fill="#ef5350" font-size="9" transform="rotate(-90 55 280)">heating ↑</text>

  <!-- ====== Passive T joint at collector top (spec 024) ====== -->
  <circle cx="175" cy="85" r="5" fill="#64b5f6"/>
  <text x="177" y="69" fill="#64b5f6" text-anchor="middle" font-size="8">T joint</text>
  <line x1="120" y1="85" x2="170" y2="85" stroke="#ef5350" stroke-width="2"/>

  <!-- ====== RESERVOIR ====== -->
  <rect x="290" y="72" width="120" height="45"
        fill="#42a5f515" stroke="#42a5f5" stroke-width="2" rx="4"/>
  <text x="350" y="92" fill="#64b5f6" text-anchor="middle" font-size="11" font-weight="bold">Reservoir</text>
  <text x="350" y="107" fill="#64b5f6" text-anchor="middle" font-size="9">air separator</text>
  <text x="350" y="66" fill="#90caf9" text-anchor="middle" font-size="9">open / vented (200cm)</text>

  <!-- Return pipe: T joint → reservoir (permanent, below water line) -->
  <path d="M 180 85 L 250 85 L 250 100 L 290 100" fill="none" stroke="#ef5350" stroke-width="2.5"/>
  <polygon points="290,100 282,95 282,105" fill="#ef5350"/>
  <text x="255" y="78" fill="#ef5350" font-size="9">hot return →</text>

  <!-- ====== JÄSPI TANK ====== -->
  <rect x="460" y="100" width="100" height="500"
        fill="#1565c010" stroke="#1565c0" stroke-width="2" rx="5"/>
  <!-- Hot zone (being filled from top via dip tube) -->
  <rect x="464" y="115" width="92" height="80" fill="#e5393512" rx="3"/>
  <text x="510" y="155" fill="#ef9a9a" text-anchor="middle" font-size="10">HOT (top)</text>
  <!-- Cool zone (being drawn from) -->
  <rect x="464" y="530" width="92" height="65" fill="#1565c018" rx="3"/>
  <text x="510" y="565" fill="#64b5f6" text-anchor="middle" font-size="10">COOL (btm)</text>
  <text x="510" y="400" fill="#90caf9" text-anchor="middle" font-size="14" font-weight="bold">Jäspi</text>
  <text x="510" y="420" fill="#90caf9" text-anchor="middle" font-size="11">300L</text>

  <!-- Dip tube inside tank -->
  <line x1="490" y1="115" x2="490" y2="600" stroke="#ef535030" stroke-width="1.5" stroke-dasharray="4,3"/>
  <text x="498" y="340" fill="#ef9a9a40" font-size="7" transform="rotate(-90 498 340)">internal dip tube</text>

  <!-- Dip tube opening at ~185cm -->
  <circle cx="490" cy="115" r="3" fill="#ef5350"/>
  <text x="505" y="118" fill="#ef9a9a" font-size="8">exits ~185cm</text>

  <!-- Tank bottom connections -->
  <circle cx="490" cy="600" r="5" fill="#1565c0"/>
  <text x="450" y="620" fill="#64b5f6" font-size="8">bottom port</text>
  <circle cx="520" cy="600" r="5" fill="#e53935"/>
  <text x="515" y="620" fill="#ef9a9a" font-size="8">dip tube port</text>

  <!-- ====== Pipe: Reservoir → dip tube pipe → tank top ====== -->
  <!-- Water exits reservoir, goes down the dip tube pipe, enters tank at top -->
  <path d="M 350 117 L 350 140 L 430 140 L 430 630 L 520 630 L 520 600" fill="none" stroke="#ef5350" stroke-width="2"/>
  <text x="438" y="380" fill="#ef9a9a" font-size="8" transform="rotate(-90 438 380)">reservoir → dip tube pipe ↓</text>
  <text x="530" y="625" fill="#ef9a9a" font-size="8">enters dip tube port</text>

  <!-- Arrow showing hot water enters tank TOP -->
  <path d="M 490 600 L 490 115" fill="none" stroke="#ef535040" stroke-width="1.5"/>
  <text x="475" y="200" fill="#ef9a9a60" font-size="8" transform="rotate(-90 475 200)">rises inside via dip tube</text>

  <!-- ====== SUPPLY PATH ====== -->
  <!-- Tank bottom port → VI-btm → pump → VO-coll → collector bottom -->

  <!-- VI-btm valve -->
  <rect x="570" y="565" width="55" height="20" fill="#76ff0320" stroke="#76ff03" stroke-width="1.5" rx="3"/>
  <text x="597" y="579" fill="#76ff03" text-anchor="middle" font-size="9">VI-btm</text>
  <text x="597" y="559" fill="#76ff03" text-anchor="middle" font-size="8">OPEN</text>

  <!-- Pipe: tank bottom port → VI-btm -->
  <path d="M 490 600 L 490 640 L 570 640 L 570 575" fill="none" stroke="#42a5f5" stroke-width="2.5"/>

  <!-- Pump -->
  <circle cx="660" cy="540" r="22" fill="#76ff0312" stroke="#4fc3f7" stroke-width="2.5"/>
  <text x="660" y="536" fill="#4fc3f7" text-anchor="middle" font-size="11" font-weight="bold">Pump</text>
  <text x="660" y="549" fill="#76ff03" text-anchor="middle" font-size="9">ON</text>

  <!-- Pipe: VI-btm → pump -->
  <path d="M 597 565 L 597 540 L 638 540" fill="none" stroke="#42a5f5" stroke-width="2.5"/>
  <polygon points="638,540 630,535 630,545" fill="#42a5f5"/>

  <!-- VO-coll valve -->
  <rect x="710" y="498" width="55" height="20" fill="#76ff0320" stroke="#76ff03" stroke-width="1.5" rx="3"/>
  <text x="737" y="512" fill="#76ff03" text-anchor="middle" font-size="9">VO-coll</text>
  <text x="737" y="492" fill="#76ff03" text-anchor="middle" font-size="8">OPEN</text>

  <!-- Pipe: pump → VO-coll -->
  <path d="M 682 540 L 737 540 L 737 518" fill="none" stroke="#42a5f5" stroke-width="2.5"/>

  <!-- Pipe: VO-coll → collector bottom -->
  <path d="M 737 498 L 737 470 L 120 470" fill="none" stroke="#42a5f5" stroke-width="2.5"/>
  <polygon points="120,470 130,465 130,475" fill="#42a5f5"/>
  <text x="430" y="464" fill="#42a5f5" font-size="9">cool supply →</text>

  <!-- ====== STATUS BOX ====== -->
  <rect x="570" y="70" width="210" height="220" fill="#1a2a1a" stroke="#388e3c" stroke-width="1.5" rx="5"/>
  <text x="585" y="92" fill="#66bb6a" font-size="12" font-weight="bold">Open Valves</text>
  <text x="585" y="115" fill="#ccc" font-size="11">VI-btm — tank bottom</text>
  <text x="585" y="135" fill="#ccc" font-size="11">VO-coll — to collectors</text>
  <text x="585" y="155" fill="#ccc" font-size="11">T joint — collector → reservoir</text>
  <line x1="580" y1="168" x2="770" y2="168" stroke="#388e3c55"/>
  <text x="585" y="188" fill="#66bb6a" font-size="11">Pump: ON</text>
  <text x="585" y="208" fill="#888" font-size="11">Fan: OFF</text>
  <line x1="580" y1="218" x2="770" y2="218" stroke="#388e3c55"/>
  <text x="585" y="238" fill="#aaa" font-size="10">Stop when:</text>
  <text x="585" y="255" fill="#ccc" font-size="10">T_coll &lt; T_tank_btm + 3°C</text>
  <line x1="580" y1="266" x2="770" y2="266" stroke="#388e3c55"/>
  <text x="585" y="282" fill="#90caf9" font-size="9">Return enters tank at TOP via dip tube</text>
</svg>
